<mxfile host="Electron" modified="2023-12-11T11:49:35.018Z" agent="Mozilla/5.0 (Windows NT 10.0; Win64; x64) AppleWebKit/537.36 (KHTML, like Gecko) draw.io/21.2.8 Chrome/112.0.5615.165 Electron/24.2.0 Safari/537.36" etag="pliAbC8j6MWiAMNfCY3j" version="21.2.8" type="device">
  <diagram name="Page-1" id="b5b7bab2-c9e2-2cf4-8b2a-24fd1a2a6d21">
    <mxGraphModel dx="1652" dy="969" grid="1" gridSize="10" guides="1" tooltips="1" connect="1" arrows="1" fold="1" page="1" pageScale="1" pageWidth="827" pageHeight="1169" background="none" math="0" shadow="0">
      <root>
        <mxCell id="0" />
        <mxCell id="1" parent="0" />
        <mxCell id="BikV_KqG0ko-lGYDY_A8-5" value="&lt;b&gt;Eureka-Server&lt;/b&gt;" style="html=1;dropTarget=0;whiteSpace=wrap;" vertex="1" parent="1">
          <mxGeometry x="480" y="135" width="140" height="50" as="geometry" />
        </mxCell>
        <mxCell id="BikV_KqG0ko-lGYDY_A8-6" value="" style="shape=module;jettyWidth=8;jettyHeight=4;" vertex="1" parent="BikV_KqG0ko-lGYDY_A8-5">
          <mxGeometry x="1" width="20" height="20" relative="1" as="geometry">
            <mxPoint x="-27" y="7" as="offset" />
          </mxGeometry>
        </mxCell>
        <mxCell id="BikV_KqG0ko-lGYDY_A8-16" value="&lt;b&gt;KaeseService&lt;/b&gt;" style="html=1;dropTarget=0;whiteSpace=wrap;" vertex="1" parent="1">
          <mxGeometry x="480" y="277" width="140" height="50" as="geometry" />
        </mxCell>
        <mxCell id="BikV_KqG0ko-lGYDY_A8-17" value="" style="shape=module;jettyWidth=8;jettyHeight=4;" vertex="1" parent="BikV_KqG0ko-lGYDY_A8-16">
          <mxGeometry x="1" width="20" height="20" relative="1" as="geometry">
            <mxPoint x="-27" y="7" as="offset" />
          </mxGeometry>
        </mxCell>
        <mxCell id="BikV_KqG0ko-lGYDY_A8-22" style="edgeStyle=orthogonalEdgeStyle;rounded=0;orthogonalLoop=1;jettySize=auto;html=1;exitX=0.5;exitY=0;exitDx=0;exitDy=0;endArrow=none;endFill=0;" edge="1" parent="1" source="BikV_KqG0ko-lGYDY_A8-18">
          <mxGeometry relative="1" as="geometry">
            <mxPoint x="550" y="240" as="targetPoint" />
            <Array as="points">
              <mxPoint x="270" y="240" />
            </Array>
          </mxGeometry>
        </mxCell>
        <mxCell id="BikV_KqG0ko-lGYDY_A8-18" value="&lt;b&gt;WeinService&lt;/b&gt;" style="html=1;dropTarget=0;whiteSpace=wrap;" vertex="1" parent="1">
          <mxGeometry x="180" y="277" width="140" height="50" as="geometry" />
        </mxCell>
        <mxCell id="BikV_KqG0ko-lGYDY_A8-19" value="" style="shape=module;jettyWidth=8;jettyHeight=4;" vertex="1" parent="BikV_KqG0ko-lGYDY_A8-18">
          <mxGeometry x="1" width="20" height="20" relative="1" as="geometry">
            <mxPoint x="-27" y="7" as="offset" />
          </mxGeometry>
        </mxCell>
        <mxCell id="BikV_KqG0ko-lGYDY_A8-20" value="&lt;b&gt;MainApp&lt;/b&gt;" style="html=1;dropTarget=0;whiteSpace=wrap;" vertex="1" parent="1">
          <mxGeometry x="650" y="277" width="140" height="50" as="geometry" />
        </mxCell>
        <mxCell id="BikV_KqG0ko-lGYDY_A8-21" value="" style="shape=module;jettyWidth=8;jettyHeight=4;" vertex="1" parent="BikV_KqG0ko-lGYDY_A8-20">
          <mxGeometry x="1" width="20" height="20" relative="1" as="geometry">
            <mxPoint x="-27" y="7" as="offset" />
          </mxGeometry>
        </mxCell>
        <mxCell id="BikV_KqG0ko-lGYDY_A8-10" value="" style="rounded=0;orthogonalLoop=1;jettySize=auto;html=1;endArrow=none;endFill=0;sketch=0;sourcePerimeterSpacing=0;targetPerimeterSpacing=0;exitX=0.5;exitY=1;exitDx=0;exitDy=0;" edge="1" parent="1" source="BikV_KqG0ko-lGYDY_A8-14">
          <mxGeometry relative="1" as="geometry">
            <mxPoint x="550" y="186" as="sourcePoint" />
            <mxPoint x="550" y="201" as="targetPoint" />
          </mxGeometry>
        </mxCell>
        <mxCell id="BikV_KqG0ko-lGYDY_A8-11" value="" style="rounded=0;orthogonalLoop=1;jettySize=auto;html=1;endArrow=halfCircle;endFill=0;entryX=0.5;entryY=0.5;endSize=6;strokeWidth=1;sketch=0;exitX=0.5;exitY=0;exitDx=0;exitDy=0;" edge="1" parent="1" target="BikV_KqG0ko-lGYDY_A8-12" source="BikV_KqG0ko-lGYDY_A8-16">
          <mxGeometry relative="1" as="geometry">
            <mxPoint x="550" y="251" as="sourcePoint" />
          </mxGeometry>
        </mxCell>
        <mxCell id="BikV_KqG0ko-lGYDY_A8-12" value="" style="ellipse;whiteSpace=wrap;html=1;align=center;aspect=fixed;resizable=0;points=[];outlineConnect=0;sketch=0;rotation=90;" vertex="1" parent="1">
          <mxGeometry x="545" y="199" width="10" height="10" as="geometry" />
        </mxCell>
        <mxCell id="BikV_KqG0ko-lGYDY_A8-14" value="" style="whiteSpace=wrap;html=1;aspect=fixed;" vertex="1" parent="1">
          <mxGeometry x="545" y="181" width="10" height="10" as="geometry" />
        </mxCell>
        <mxCell id="BikV_KqG0ko-lGYDY_A8-25" style="edgeStyle=orthogonalEdgeStyle;rounded=0;orthogonalLoop=1;jettySize=auto;html=1;exitX=0.5;exitY=0;exitDx=0;exitDy=0;endArrow=none;endFill=0;" edge="1" parent="1" source="BikV_KqG0ko-lGYDY_A8-20">
          <mxGeometry relative="1" as="geometry">
            <mxPoint x="780" y="277" as="sourcePoint" />
            <mxPoint x="550" y="240" as="targetPoint" />
            <Array as="points">
              <mxPoint x="720" y="240" />
            </Array>
          </mxGeometry>
        </mxCell>
        <mxCell id="BikV_KqG0ko-lGYDY_A8-47" value="&lt;b&gt;KaeseDB&lt;/b&gt;" style="html=1;dropTarget=0;whiteSpace=wrap;" vertex="1" parent="1">
          <mxGeometry x="360" y="277" width="110" height="50" as="geometry" />
        </mxCell>
        <mxCell id="BikV_KqG0ko-lGYDY_A8-48" value="" style="shape=module;jettyWidth=8;jettyHeight=4;" vertex="1" parent="BikV_KqG0ko-lGYDY_A8-47">
          <mxGeometry x="1" width="20" height="20" relative="1" as="geometry">
            <mxPoint x="-27" y="7" as="offset" />
          </mxGeometry>
        </mxCell>
        <mxCell id="BikV_KqG0ko-lGYDY_A8-49" value="&lt;b&gt;WeinDB&lt;/b&gt;" style="html=1;dropTarget=0;whiteSpace=wrap;" vertex="1" parent="1">
          <mxGeometry x="60" y="277" width="110" height="50" as="geometry" />
        </mxCell>
        <mxCell id="BikV_KqG0ko-lGYDY_A8-50" value="" style="shape=module;jettyWidth=8;jettyHeight=4;" vertex="1" parent="BikV_KqG0ko-lGYDY_A8-49">
          <mxGeometry x="1" width="20" height="20" relative="1" as="geometry">
            <mxPoint x="-27" y="7" as="offset" />
          </mxGeometry>
        </mxCell>
        <mxCell id="BikV_KqG0ko-lGYDY_A8-43" value="" style="group" vertex="1" connectable="0" parent="1">
          <mxGeometry x="580" y="322" width="10" height="68" as="geometry" />
        </mxCell>
        <mxCell id="BikV_KqG0ko-lGYDY_A8-39" value="" style="rounded=0;orthogonalLoop=1;jettySize=auto;html=1;endArrow=none;endFill=0;sketch=0;sourcePerimeterSpacing=0;targetPerimeterSpacing=0;exitX=0.5;exitY=1;exitDx=0;exitDy=0;" edge="1" parent="BikV_KqG0ko-lGYDY_A8-43" source="BikV_KqG0ko-lGYDY_A8-42">
          <mxGeometry relative="1" as="geometry">
            <mxPoint x="5" y="5" as="sourcePoint" />
            <mxPoint x="5" y="20" as="targetPoint" />
          </mxGeometry>
        </mxCell>
        <mxCell id="BikV_KqG0ko-lGYDY_A8-40" value="" style="rounded=0;orthogonalLoop=1;jettySize=auto;html=1;endArrow=halfCircle;endFill=0;entryX=0.5;entryY=0.5;endSize=6;strokeWidth=1;sketch=0;" edge="1" parent="BikV_KqG0ko-lGYDY_A8-43" target="BikV_KqG0ko-lGYDY_A8-41">
          <mxGeometry relative="1" as="geometry">
            <mxPoint x="5" y="68" as="sourcePoint" />
          </mxGeometry>
        </mxCell>
        <mxCell id="BikV_KqG0ko-lGYDY_A8-41" value="" style="ellipse;whiteSpace=wrap;html=1;align=center;aspect=fixed;resizable=0;points=[];outlineConnect=0;sketch=0;rotation=90;" vertex="1" parent="BikV_KqG0ko-lGYDY_A8-43">
          <mxGeometry y="18" width="10" height="10" as="geometry" />
        </mxCell>
        <mxCell id="BikV_KqG0ko-lGYDY_A8-42" value="" style="whiteSpace=wrap;html=1;aspect=fixed;" vertex="1" parent="BikV_KqG0ko-lGYDY_A8-43">
          <mxGeometry width="10" height="10" as="geometry" />
        </mxCell>
        <mxCell id="BikV_KqG0ko-lGYDY_A8-44" style="edgeStyle=orthogonalEdgeStyle;rounded=0;orthogonalLoop=1;jettySize=auto;html=1;exitX=0.25;exitY=1;exitDx=0;exitDy=0;endArrow=none;endFill=0;" edge="1" parent="1" source="BikV_KqG0ko-lGYDY_A8-20">
          <mxGeometry relative="1" as="geometry">
            <mxPoint x="785" y="350" as="sourcePoint" />
            <mxPoint x="585" y="388" as="targetPoint" />
            <Array as="points">
              <mxPoint x="685" y="390" />
            </Array>
          </mxGeometry>
        </mxCell>
        <mxCell id="BikV_KqG0ko-lGYDY_A8-45" style="edgeStyle=orthogonalEdgeStyle;rounded=0;orthogonalLoop=1;jettySize=auto;html=1;exitX=0.75;exitY=1;exitDx=0;exitDy=0;endArrow=none;endFill=0;" edge="1" parent="1" source="BikV_KqG0ko-lGYDY_A8-20">
          <mxGeometry relative="1" as="geometry">
            <mxPoint x="780" y="337" as="sourcePoint" />
            <mxPoint x="286" y="390" as="targetPoint" />
            <Array as="points">
              <mxPoint x="755" y="400" />
              <mxPoint x="285" y="400" />
              <mxPoint x="285" y="390" />
            </Array>
          </mxGeometry>
        </mxCell>
        <mxCell id="BikV_KqG0ko-lGYDY_A8-57" value="" style="group" vertex="1" connectable="0" parent="1">
          <mxGeometry x="280" y="322" width="10" height="68" as="geometry" />
        </mxCell>
        <mxCell id="BikV_KqG0ko-lGYDY_A8-34" value="" style="rounded=0;orthogonalLoop=1;jettySize=auto;html=1;endArrow=none;endFill=0;sketch=0;sourcePerimeterSpacing=0;targetPerimeterSpacing=0;exitX=0.5;exitY=1;exitDx=0;exitDy=0;" edge="1" parent="BikV_KqG0ko-lGYDY_A8-57" source="BikV_KqG0ko-lGYDY_A8-37">
          <mxGeometry relative="1" as="geometry">
            <mxPoint x="5" y="5" as="sourcePoint" />
            <mxPoint x="5" y="20" as="targetPoint" />
          </mxGeometry>
        </mxCell>
        <mxCell id="BikV_KqG0ko-lGYDY_A8-35" value="" style="rounded=0;orthogonalLoop=1;jettySize=auto;html=1;endArrow=halfCircle;endFill=0;entryX=0.5;entryY=0.5;endSize=6;strokeWidth=1;sketch=0;" edge="1" parent="BikV_KqG0ko-lGYDY_A8-57" target="BikV_KqG0ko-lGYDY_A8-36">
          <mxGeometry relative="1" as="geometry">
            <mxPoint x="5" y="68" as="sourcePoint" />
          </mxGeometry>
        </mxCell>
        <mxCell id="BikV_KqG0ko-lGYDY_A8-36" value="" style="ellipse;whiteSpace=wrap;html=1;align=center;aspect=fixed;resizable=0;points=[];outlineConnect=0;sketch=0;rotation=90;" vertex="1" parent="BikV_KqG0ko-lGYDY_A8-57">
          <mxGeometry y="18" width="10" height="10" as="geometry" />
        </mxCell>
        <mxCell id="BikV_KqG0ko-lGYDY_A8-37" value="" style="whiteSpace=wrap;html=1;aspect=fixed;" vertex="1" parent="BikV_KqG0ko-lGYDY_A8-57">
          <mxGeometry width="10" height="10" as="geometry" />
        </mxCell>
        <mxCell id="BikV_KqG0ko-lGYDY_A8-56" style="edgeStyle=orthogonalEdgeStyle;rounded=0;orthogonalLoop=1;jettySize=auto;html=1;exitX=0.25;exitY=1;exitDx=0;exitDy=0;endArrow=none;endFill=0;" edge="1" parent="1" source="BikV_KqG0ko-lGYDY_A8-16">
          <mxGeometry relative="1" as="geometry">
            <mxPoint x="515" y="332" as="sourcePoint" />
            <mxPoint x="420" y="370" as="targetPoint" />
            <Array as="points">
              <mxPoint x="515" y="370" />
            </Array>
          </mxGeometry>
        </mxCell>
        <mxCell id="BikV_KqG0ko-lGYDY_A8-52" value="" style="rounded=0;orthogonalLoop=1;jettySize=auto;html=1;endArrow=none;endFill=0;sketch=0;sourcePerimeterSpacing=0;targetPerimeterSpacing=0;exitX=0.5;exitY=1;exitDx=0;exitDy=0;" edge="1" parent="1" source="BikV_KqG0ko-lGYDY_A8-55">
          <mxGeometry relative="1" as="geometry">
            <mxPoint x="420" y="327" as="sourcePoint" />
            <mxPoint x="420" y="342" as="targetPoint" />
          </mxGeometry>
        </mxCell>
        <mxCell id="BikV_KqG0ko-lGYDY_A8-53" value="" style="rounded=0;orthogonalLoop=1;jettySize=auto;html=1;endArrow=halfCircle;endFill=0;entryX=0.5;entryY=0.5;endSize=6;strokeWidth=1;sketch=0;" edge="1" parent="1" target="BikV_KqG0ko-lGYDY_A8-54">
          <mxGeometry relative="1" as="geometry">
            <mxPoint x="420" y="370" as="sourcePoint" />
          </mxGeometry>
        </mxCell>
        <mxCell id="BikV_KqG0ko-lGYDY_A8-54" value="" style="ellipse;whiteSpace=wrap;html=1;align=center;aspect=fixed;resizable=0;points=[];outlineConnect=0;sketch=0;rotation=90;" vertex="1" parent="1">
          <mxGeometry x="415" y="340" width="10" height="10" as="geometry" />
        </mxCell>
        <mxCell id="BikV_KqG0ko-lGYDY_A8-55" value="" style="whiteSpace=wrap;html=1;aspect=fixed;" vertex="1" parent="1">
          <mxGeometry x="415" y="322" width="10" height="10" as="geometry" />
        </mxCell>
        <mxCell id="BikV_KqG0ko-lGYDY_A8-60" style="edgeStyle=orthogonalEdgeStyle;rounded=0;orthogonalLoop=1;jettySize=auto;html=1;exitX=0.292;exitY=1.003;exitDx=0;exitDy=0;endArrow=none;endFill=0;exitPerimeter=0;" edge="1" parent="1" source="BikV_KqG0ko-lGYDY_A8-18">
          <mxGeometry relative="1" as="geometry">
            <mxPoint x="221" y="332" as="sourcePoint" />
            <mxPoint x="116" y="370" as="targetPoint" />
            <Array as="points">
              <mxPoint x="221" y="370" />
            </Array>
          </mxGeometry>
        </mxCell>
        <mxCell id="BikV_KqG0ko-lGYDY_A8-61" value="" style="rounded=0;orthogonalLoop=1;jettySize=auto;html=1;endArrow=none;endFill=0;sketch=0;sourcePerimeterSpacing=0;targetPerimeterSpacing=0;exitX=0.5;exitY=1;exitDx=0;exitDy=0;" edge="1" parent="1" source="BikV_KqG0ko-lGYDY_A8-64">
          <mxGeometry relative="1" as="geometry">
            <mxPoint x="115" y="327" as="sourcePoint" />
            <mxPoint x="115" y="342" as="targetPoint" />
          </mxGeometry>
        </mxCell>
        <mxCell id="BikV_KqG0ko-lGYDY_A8-62" value="" style="rounded=0;orthogonalLoop=1;jettySize=auto;html=1;endArrow=halfCircle;endFill=0;entryX=0.5;entryY=0.5;endSize=6;strokeWidth=1;sketch=0;" edge="1" parent="1" target="BikV_KqG0ko-lGYDY_A8-63">
          <mxGeometry relative="1" as="geometry">
            <mxPoint x="115" y="370" as="sourcePoint" />
          </mxGeometry>
        </mxCell>
        <mxCell id="BikV_KqG0ko-lGYDY_A8-63" value="" style="ellipse;whiteSpace=wrap;html=1;align=center;aspect=fixed;resizable=0;points=[];outlineConnect=0;sketch=0;rotation=90;" vertex="1" parent="1">
          <mxGeometry x="110" y="340" width="10" height="10" as="geometry" />
        </mxCell>
        <mxCell id="BikV_KqG0ko-lGYDY_A8-64" value="" style="whiteSpace=wrap;html=1;aspect=fixed;" vertex="1" parent="1">
          <mxGeometry x="110" y="322" width="10" height="10" as="geometry" />
        </mxCell>
      </root>
    </mxGraphModel>
  </diagram>
</mxfile>
